<svg xmlns="http://www.w3.org/2000/svg" xmlns:xlink="http://www.w3.org/1999/xlink" viewBox="0 0 76 29" fill="#fff" fill-rule="evenodd" stroke="#000" stroke-linecap="round" stroke-linejoin="round"><use xlink:href="#A" x=".5" y=".5"/><symbol id="A" overflow="visible"><g stroke-linejoin="miter" fill-rule="nonzero" stroke-width=".037"><path d="M15.578 7.082c-3.54.707-9.913 6.017-10.972 6.726S0 14.516 0 14.516L23.014 27.26s3.54-.354 5.664-1.416 3.893-3.894 7.434-5.31c1.586-.636 4.637-1.382 7.316-1.653 1.183-.12 3.213-.057 4.367.474 1.61.738 4.017-.62 4.017-.62s1.293-1.742 4.834-2.095 6.371 1.416 9.204 1.416 8.852-1.77 8.852-1.77L51.334 2.125s-3.184 2.479-6.371 2.123-4.604-.705-7.436-.705-10.266 3.893-10.266 3.893-8.144-1.061-11.685-.353z" stroke="#806184" fill="#9e0b0f"/><g stroke="#7f7e96"><g fill="#d0cca8"><path d="M49.565 18.056L27.261 6.019s7.435-3.894 10.266-3.894 4.249.354 7.436.707S51.334.709 51.334.709L74.701 14.87s-6.021 1.77-8.852 1.77-5.664-1.77-9.204-1.417-7.079 2.833-7.079 2.833z"/><path d="M27.261 6.726s-8.143-1.77-11.683-1.063-9.913 6.02-10.972 6.729S0 13.098 0 13.098l23.014 12.746s3.54-.354 5.664-1.417 3.893-3.893 7.434-5.31 13.453-1.061 13.453-1.061L27.262 6.726z"/></g><g fill="#e5e0b7"><path d="M27.261 5.31s-8.143-1.768-11.683-1.063-9.913 6.02-10.972 6.729-3.189.707-3.189.707l23.721 12.744s1.416-.353 3.54-1.414 3.892-3.896 7.434-5.311 13.453.354 13.453.354L27.262 5.309z"/><path d="M49.565 18.056L27.261 5.31s7.435-3.894 10.266-3.894 4.249.354 7.436.709 4.956-.709 4.956-.709l21.95 12.746s-3.188 1.061-6.019 1.061-5.664-1.061-9.204-.707-7.082 3.54-7.082 3.54z"/></g><g fill="#fffbcc"><path d="M27.261 4.603s-8.143-1.771-11.683-1.061-9.913 5.31-10.972 6.017-3.189.709-3.189.709l23.721 12.746s1.416-.354 3.54-1.416 3.892-3.896 7.434-5.311 13.453 1.77 13.453 1.77L27.262 4.602z"/><path d="M49.565 18.055L27.261 4.603S33.987 0 36.82 0s4.956.353 8.143.709S50.627 0 50.627 0l21.24 12.037s-3.894 1.77-6.725 1.77-4.957-1.063-8.497-.709-7.079 4.957-7.079 4.957z"/></g></g></g></symbol></svg>